<svg xmlns="http://www.w3.org/2000/svg" xmlns:xlink="http://www.w3.org/1999/xlink" version="1.1" width="398pt" height="180pt" viewBox="0 0 398 180">
<defs>
<clipPath id="clip_0">
<path transform="matrix(1,0,0,-1,0,180)" d="M0 180H398V0H0Z"/>
</clipPath>
</defs>
<g id="layer_1" data-name="">
<path transform="matrix(1,0,0,-1,219.1689,104.9819)" d="M0 0-30.672 40.26V0H-44.424V63.329H-31.579L-1.902 24.335V63.329H11.848V0Z" fill="#233269"/>
<path transform="matrix(1,0,0,-1,0,180)" d="M246.85 138.347H260.785V75.018009H246.85Z" fill="#233269"/>
<g clip-path="url(#clip_0)">
<path transform="matrix(1,0,0,-1,320.6865,94.623)" d="M0 0C-1.139-2.445-2.728-4.496-4.765-6.154-6.804-7.812-9.233-9.081-12.057-9.953-14.885-10.825-18.014-11.267-21.452-11.267-26.28-11.267-31.014-10.437-35.657-8.775-40.302-7.119-44.524-4.568-48.322-1.131L-40.091 8.73C-37.195 6.377-34.223 4.509-31.179 3.119-28.133 1.732-24.8 1.04-21.182 1.04-18.288 1.04-16.04 1.564-14.442 2.624-12.845 3.679-12.044 5.14-12.044 7.011V7.191C-12.044 8.097-12.209 8.896-12.545 9.589-12.876 10.282-13.51 10.93-14.449 11.534-15.386 12.136-16.687 12.74-18.352 13.345-20.014 13.945-22.177 14.58-24.833 15.244-28.042 16.027-30.944 16.902-33.544 17.868-36.145 18.831-38.349 20.021-40.167 21.441-41.979 22.857-43.387 24.621-44.383 26.733-45.381 28.843-45.879 31.466-45.879 34.605V34.786C-45.879 37.68-45.341 40.291-44.263 42.61-43.187 44.934-41.672 46.939-39.724 48.628-37.777 50.318-35.452 51.614-32.75 52.519-30.044 53.422-27.064 53.875-23.806 53.875-19.162 53.875-14.894 53.182-11.002 51.793-7.113 50.407-3.54 48.415-.28 45.822L-7.521 35.329C-10.357 37.259-13.131 38.782-15.843 39.895-18.559 41.013-21.272 41.571-23.988 41.571-26.702 41.571-28.739 41.043-30.092 39.987-31.454 38.931-32.129 37.621-32.129 36.051V35.871C-32.129 34.846-31.934 33.956-31.539 33.203-31.149 32.45-30.437 31.769-29.408 31.166-28.38 30.564-26.972 29.99-25.19 29.447-23.408 28.904-21.155 28.271-18.43 27.548-15.227 26.702-12.368 25.75-9.86 24.697-7.351 23.642-5.232 22.375-3.507 20.897-1.786 19.42-.485 17.687 .393 15.697 1.266 13.706 1.708 11.323 1.708 8.549V8.367C1.708 5.231 1.136 2.44 0 0" fill="#233269"/>
<path transform="matrix(1,0,0,-1,334.5176,104.9819)" d="M0 0V63.329H13.933V12.575H45.51V0Z" fill="#233269"/>
<path transform="matrix(1,0,0,-1,176.2285,116.366199)" d="M0 0H.73L7.932-9.08V0H8.679V-10.437H8.097L.746-1.162V-10.437H0Z" fill="#233269"/>
<path transform="matrix(1,0,0,-1,187.6831,123.8506)" d="M0 0V4.653H.73V.134C.73-1.432 1.61-2.46 3.146-2.46 4.637-2.46 5.785-1.327 5.785 .254V4.653H6.515V-2.952H5.785V-1.536C5.277-2.431 4.428-3.131 3.041-3.131 1.118-3.131 0-1.819 0 0" fill="#233269"/>
<path transform="matrix(1,0,0,-1,196.9624,119.1978)" d="M0 0H.73V-1.357C1.222-.568 1.908 .178 3.264 .178 4.593 .178 5.413-.582 5.83-1.462 6.321-.612 7.141 .178 8.573 .178 10.377 .178 11.496-1.089 11.496-2.998V-7.605H10.765V-3.087C10.765-1.447 9.915-.493 8.513-.493 7.231-.493 6.113-1.477 6.113-3.177V-7.605H5.382V-3.043C5.382-1.462 4.517-.493 3.161-.493 1.804-.493 .73-1.686 .73-3.221V-7.605H0Z" fill="#233269"/>
<path transform="matrix(1,0,0,-1,216.9131,122.6426)" d="M0 0C-.104 1.536-.985 2.952-2.729 2.952-4.236 2.952-5.398 1.686-5.532 0ZM-6.308-.373V-.343C-6.308 1.864-4.757 3.623-2.7 3.623-.567 3.623 .789 1.893 .789-.358 .789-.492 .789-.538 .774-.656H-5.532C-5.398-2.55-4.042-3.653-2.55-3.653-1.373-3.653-.567-3.132 .059-2.461L.566-2.908C-.209-3.743-1.119-4.339-2.58-4.339-4.578-4.339-6.308-2.744-6.308-.373" fill="#233269"/>
<path transform="matrix(1,0,0,-1,219.8262,119.1978)" d="M0 0H.73V-2.163C1.327-.805 2.594 .178 4.1 .118V-.686H4.026C2.266-.686 .73-2.014 .73-4.489V-7.605H0Z" fill="#233269"/>
<path transform="matrix(1,0,0,-1,0,180)" d="M225.888 60.802H226.618V53.197H225.888ZM225.799 63.784H226.709V62.785H225.799Z" fill="#233269"/>
<path transform="matrix(1,0,0,-1,228.9712,123.030307)" d="M0 0V.029C0 2.162 1.699 4.011 3.877 4.011 5.308 4.011 6.202 3.355 6.918 2.609L6.396 2.073C5.741 2.743 4.995 3.325 3.861 3.325 2.132 3.325 .79 1.879 .79 .06V.029C.79-1.805 2.176-3.266 3.921-3.266 4.995-3.266 5.83-2.713 6.471-1.998L6.978-2.446C6.202-3.325 5.277-3.951 3.877-3.951 1.685-3.951 0-2.132 0 0" fill="#233269"/>
<path transform="matrix(1,0,0,-1,243.2305,123.9551)" d="M0 0V.865C-.64 1.029-1.49 1.208-2.58 1.208-4.189 1.208-5.084 .492-5.084-.566V-.596C-5.084-1.7-4.04-2.341-2.877-2.341-1.327-2.341 0-1.387 0 0M-5.86-.641V-.611C-5.86 .969-4.502 1.864-2.534 1.864-1.476 1.864-.745 1.73-.014 1.536V1.864C-.014 3.4-.954 4.189-2.52 4.189-3.444 4.189-4.205 3.937-4.905 3.578L-5.173 4.22C-4.339 4.607-3.519 4.875-2.475 4.875-1.445 4.875-.626 4.593-.074 4.041 .433 3.534 .702 2.833 .702 1.894V-2.848H-.014V-1.581C-.536-2.311-1.476-3.026-2.921-3.026-4.339-3.026-5.86-2.221-5.86-.641" fill="#233269"/>
<path transform="matrix(1,0,0,-1,0,180)" d="M246.651 64.082H247.381V53.198H246.651Z" fill="#233269"/>
<path transform="matrix(1,0,0,-1,0,180)" d="M254.992 63.634H255.768V53.197H254.992Z" fill="#233269"/>
<path transform="matrix(1,0,0,-1,258.8052,119.1978)" d="M0 0H.731V-1.417C1.238-.522 2.087 .178 3.475 .178 5.398 .178 6.516-1.134 6.516-2.954V-7.605H5.786V-3.087C5.786-1.522 4.906-.493 3.37-.493 1.879-.493 .731-1.625 .731-3.207V-7.605H0Z" fill="#233269"/>
<path transform="matrix(1,0,0,-1,268.3384,124.8496)" d="M0 0V4.98H-1.104V5.652H0V8.082H.73V5.652H3.399V4.98H.73V.075C.73-1.015 1.372-1.402 2.25-1.402 2.623-1.402 2.937-1.327 3.37-1.133V-1.819C2.982-1.998 2.609-2.087 2.132-2.087 .955-2.087 0-1.446 0 0" fill="#233269"/>
<path transform="matrix(1,0,0,-1,279.4565,122.6426)" d="M0 0C-.104 1.536-.985 2.952-2.729 2.952-4.235 2.952-5.398 1.686-5.532 0ZM-6.308-.373V-.343C-6.308 1.864-4.757 3.623-2.699 3.623-.566 3.623 .79 1.893 .79-.358 .79-.492 .79-.538 .774-.656H-5.532C-5.398-2.55-4.042-3.653-2.55-3.653-1.373-3.653-.566-3.132 .059-2.461L.567-2.908C-.209-3.743-1.119-4.339-2.58-4.339-4.578-4.339-6.308-2.744-6.308-.373" fill="#233269"/>
<path transform="matrix(1,0,0,-1,0,180)" d="M282.474 64.082H283.204V53.198H282.474Z" fill="#233269"/>
<path transform="matrix(1,0,0,-1,0,180)" d="M286.183 64.082H286.91304V53.198H286.183Z" fill="#233269"/>
<path transform="matrix(1,0,0,-1,0,180)" d="M289.892 60.802H290.622V53.197H289.892ZM289.802 63.784H290.712V62.785H289.802Z" fill="#233269"/>
<path transform="matrix(1,0,0,-1,299.877,122.6426)" d="M0 0V.029C0 1.789-1.565 2.923-3.146 2.923-4.741 2.923-6.083 1.819-6.083 .045V.014C-6.083-1.701-4.712-2.894-3.146-2.894-1.565-2.894 0-1.73 0 0M-6.531-5.413-6.099-4.816C-5.189-5.518-4.145-5.89-3.027-5.89-1.282-5.89-.044-4.892-.044-2.938V-1.835C-.701-2.774-1.714-3.594-3.22-3.594-5.055-3.594-6.875-2.192-6.875-.015V.014C-6.875 2.207-5.055 3.623-3.22 3.623-1.699 3.623-.671 2.818-.044 1.922V3.445H.686V-2.983C.686-4.086 .328-4.95-.283-5.562-.939-6.218-1.923-6.576-3.042-6.576-4.309-6.576-5.487-6.189-6.531-5.413" fill="#233269"/>
<path transform="matrix(1,0,0,-1,309.1113,122.6426)" d="M0 0C-.104 1.536-.984 2.952-2.729 2.952-4.235 2.952-5.397 1.686-5.532 0ZM-6.308-.373V-.343C-6.308 1.864-4.757 3.623-2.7 3.623-.566 3.623 .79 1.893 .79-.358 .79-.492 .79-.538 .774-.656H-5.532C-5.397-2.55-4.041-3.653-2.55-3.653-1.372-3.653-.566-3.132 .059-2.461L.566-2.908C-.209-3.743-1.119-4.339-2.579-4.339-4.577-4.339-6.308-2.744-6.308-.373" fill="#233269"/>
<path transform="matrix(1,0,0,-1,312.0244,119.1978)" d="M0 0H.73V-1.417C1.237-.522 2.087 .178 3.474 .178 5.397 .178 6.516-1.134 6.516-2.954V-7.605H5.785V-3.087C5.785-1.522 4.905-.493 3.369-.493 1.879-.493 .73-1.625 .73-3.207V-7.605H0Z" fill="#233269"/>
<path transform="matrix(1,0,0,-1,321.5586,124.8496)" d="M0 0V4.98H-1.104V5.652H0V8.082H.729V5.652H3.398V4.98H.729V.075C.729-1.015 1.371-1.402 2.25-1.402 2.623-1.402 2.937-1.327 3.369-1.133V-1.819C2.981-1.998 2.609-2.087 2.132-2.087 .954-2.087 0-1.446 0 0" fill="#233269"/>
<path transform="matrix(1,0,0,-1,175.5581,143.1562)" d="M0 0 .506 .582C1.655-.477 2.713-.97 4.25-.97 5.815-.97 6.888-.089 6.888 1.104V1.133C6.888 2.236 6.307 2.878 3.936 3.355 1.432 3.862 .417 4.711 .417 6.292V6.323C.417 7.873 1.833 9.065 3.772 9.065 5.293 9.065 6.292 8.648 7.35 7.798L6.859 7.187C5.874 8.037 4.89 8.365 3.742 8.365 2.206 8.365 1.192 7.484 1.192 6.396V6.367C1.192 5.264 1.759 4.593 4.234 4.085 6.65 3.593 7.664 2.729 7.664 1.208V1.178C7.664-.507 6.217-1.67 4.204-1.67 2.534-1.67 1.252-1.118 0 0" fill="#233269"/>
<path transform="matrix(1,0,0,-1,191.3237,137.0723)" d="M0 0H.805L-2.491-7.873C-3.161-9.469-3.937-10.035-5.024-10.035-5.606-10.035-6.023-9.931-6.531-9.707L-6.277-9.066C-5.875-9.26-5.546-9.349-4.98-9.349-4.19-9.349-3.668-8.887-3.102-7.561L-6.754 0H-5.905L-2.744-6.8Z" fill="#233269"/>
<path transform="matrix(1,0,0,-1,193.1787,143.7227)" d="M0 0 .433 .582C1.267-.061 2.192-.418 3.16-.418 4.19-.418 4.995 .149 4.995 1.028V1.059C4.995 1.953 4.04 2.281 2.981 2.58 1.744 2.937 .373 3.31 .373 4.667V4.697C.373 5.919 1.401 6.8 2.877 6.8 3.787 6.8 4.816 6.471 5.576 5.964L5.188 5.353C4.488 5.814 3.653 6.113 2.848 6.113 1.804 6.113 1.118 5.546 1.118 4.787V4.756C1.118 3.906 2.147 3.594 3.235 3.28 4.458 2.937 5.74 2.49 5.74 1.148V1.119C5.74-.239 4.578-1.104 3.115-1.104 2.013-1.104 .805-.656 0 0" fill="#233269"/>
<path transform="matrix(1,0,0,-1,201.4902,142.72409)" d="M0 0V4.981H-1.103V5.652H0V8.082H.731V5.652H3.4V4.981H.731V.075C.731-1.014 1.373-1.402 2.252-1.402 2.625-1.402 2.938-1.327 3.371-1.133V-1.819C2.983-1.998 2.61-2.087 2.133-2.087 .955-2.087 0-1.446 0 0" fill="#233269"/>
<path transform="matrix(1,0,0,-1,212.6084,140.5171)" d="M0 0C-.104 1.536-.985 2.952-2.729 2.952-4.235 2.952-5.397 1.686-5.532 0ZM-6.307-.373V-.343C-6.307 1.864-4.757 3.624-2.699 3.624-.566 3.624 .791 1.893 .791-.358 .791-.492 .791-.537 .774-.655H-5.532C-5.397-2.55-4.042-3.653-2.55-3.653-1.373-3.653-.566-3.132 .059-2.461L.567-2.907C-.209-3.743-1.119-4.339-2.58-4.339-4.577-4.339-6.307-2.744-6.307-.373" fill="#233269"/>
<path transform="matrix(1,0,0,-1,215.5215,137.0723)" d="M0 0H.731V-1.357C1.222-.568 1.909 .179 3.266 .179 4.593 .179 5.412-.582 5.831-1.462 6.322-.612 7.142 .179 8.573 .179 10.377 .179 11.496-1.089 11.496-2.998V-7.604H10.766V-3.087C10.766-1.447 9.915-.493 8.515-.493 7.231-.493 6.113-1.476 6.113-3.177V-7.604H5.383V-3.043C5.383-1.462 4.518-.493 3.162-.493 1.804-.493 .731-1.686 .731-3.221V-7.604H0Z" fill="#233269"/>
<path transform="matrix(1,0,0,-1,229.0308,143.7227)" d="M0 0 .433 .582C1.267-.061 2.192-.418 3.161-.418 4.19-.418 4.995 .149 4.995 1.028V1.059C4.995 1.953 4.04 2.281 2.981 2.58 1.744 2.937 .373 3.31 .373 4.667V4.697C.373 5.919 1.401 6.8 2.877 6.8 3.787 6.8 4.816 6.471 5.577 5.964L5.188 5.353C4.488 5.814 3.653 6.113 2.848 6.113 1.804 6.113 1.117 5.546 1.117 4.787V4.756C1.117 3.906 2.147 3.594 3.236 3.28 4.458 2.937 5.74 2.49 5.74 1.148V1.119C5.74-.239 4.578-1.104 3.115-1.104 2.012-1.104 .805-.656 0 0" fill="#233269"/>
<path transform="matrix(1,0,0,-1,241.7212,134.2397)" d="M0 0H.775V-9.722H6.904V-10.437H0Z" fill="#233269"/>
<path transform="matrix(1,0,0,-1,256.0112,141.8296)" d="M0 0V.865C-.64 1.03-1.49 1.208-2.58 1.208-4.19 1.208-5.084 .492-5.084-.566V-.596C-5.084-1.699-4.04-2.341-2.877-2.341-1.327-2.341 0-1.387 0 0M-5.86-.64V-.611C-5.86 .969-4.502 1.864-2.535 1.864-1.477 1.864-.745 1.73-.014 1.536V1.864C-.014 3.4-.954 4.189-2.52 4.189-3.445 4.189-4.205 3.937-4.906 3.578L-5.173 4.22C-4.339 4.608-3.519 4.875-2.475 4.875-1.445 4.875-.626 4.593-.075 4.042 .433 3.534 .701 2.833 .701 1.894V-2.847H-.014V-1.581C-.536-2.311-1.477-3.026-2.922-3.026-4.339-3.026-5.86-2.221-5.86-.64" fill="#233269"/>
<path transform="matrix(1,0,0,-1,266.0967,140.9048)" d="M0 0V.029C0 2.027-1.387 3.311-2.981 3.311-4.562 3.311-6.083 1.983-6.083 .044V.015C-6.083-1.937-4.562-3.25-2.981-3.25-1.327-3.25 0-2.042 0 0M-6.039-2.132V-3.772H-6.769V7.113H-6.039V2.132C-5.383 3.13-4.413 4.011-2.908 4.011-1.073 4.011 .791 2.535 .791 .061V.029C.791-2.445-1.073-3.951-2.908-3.951-4.429-3.951-5.412-3.086-6.039-2.132" fill="#233269"/>
<path transform="matrix(1,0,0,-1,275.6592,140.9048)" d="M0 0V.029C0 1.864-1.373 3.325-3.132 3.325-4.937 3.325-6.233 1.849-6.233 .061V.029C-6.233-1.804-4.861-3.266-3.102-3.266-1.298-3.266 0-1.79 0 0M-7.023 0V.029C-7.023 2.162-5.368 4.011-3.102 4.011-.85 4.011 .79 2.192 .79 .061V.029C.79-2.103-.865-3.951-3.132-3.951-5.384-3.951-7.023-2.132-7.023 0" fill="#233269"/>
<path transform="matrix(1,0,0,-1,278.6904,137.0723)" d="M0 0H.731V-2.163C1.328-.805 2.596 .179 4.101 .118V-.686H4.027C2.266-.686 .731-2.014 .731-4.489V-7.604H0Z" fill="#233269"/>
<path transform="matrix(1,0,0,-1,289.5093,141.8296)" d="M0 0V.865C-.64 1.03-1.491 1.208-2.58 1.208-4.19 1.208-5.084 .492-5.084-.566V-.596C-5.084-1.699-4.04-2.341-2.877-2.341-1.327-2.341 0-1.387 0 0M-5.86-.64V-.611C-5.86 .969-4.502 1.864-2.535 1.864-1.476 1.864-.745 1.73-.014 1.536V1.864C-.014 3.4-.954 4.189-2.52 4.189-3.445 4.189-4.205 3.937-4.906 3.578L-5.173 4.22C-4.339 4.608-3.519 4.875-2.475 4.875-1.445 4.875-.627 4.593-.074 4.042 .433 3.534 .702 2.833 .702 1.894V-2.847H-.014V-1.581C-.536-2.311-1.476-3.026-2.922-3.026-4.339-3.026-5.86-2.221-5.86-.64" fill="#233269"/>
<path transform="matrix(1,0,0,-1,293.1548,142.72409)" d="M0 0V4.981H-1.104V5.652H0V8.082H.729V5.652H3.398V4.981H.729V.075C.729-1.014 1.371-1.402 2.25-1.402 2.622-1.402 2.937-1.327 3.369-1.133V-1.819C2.981-1.998 2.609-2.087 2.132-2.087 .954-2.087 0-1.446 0 0" fill="#233269"/>
<path transform="matrix(1,0,0,-1,304.9873,140.9048)" d="M0 0V.029C0 1.864-1.373 3.325-3.132 3.325-4.936 3.325-6.233 1.849-6.233 .061V.029C-6.233-1.804-4.861-3.266-3.102-3.266-1.298-3.266 0-1.79 0 0M-7.023 0V.029C-7.023 2.162-5.369 4.011-3.102 4.011-.85 4.011 .789 2.192 .789 .061V.029C.789-2.103-.865-3.951-3.132-3.951-5.384-3.951-7.023-2.132-7.023 0" fill="#233269"/>
<path transform="matrix(1,0,0,-1,308.0186,137.0723)" d="M0 0H.731V-2.163C1.327-.805 2.595 .179 4.101 .118V-.686H4.026C2.267-.686 .731-2.014 .731-4.489V-7.604H0Z" fill="#233269"/>
<path transform="matrix(1,0,0,-1,319.9248,137.0723)" d="M0 0H.806L-2.489-7.873C-3.159-9.469-3.936-10.035-5.023-10.035-5.605-10.035-6.022-9.931-6.53-9.707L-6.276-9.066C-5.874-9.26-5.546-9.349-4.979-9.349-4.188-9.349-3.667-8.887-3.101-7.561L-6.753 0H-5.903L-2.742-6.8Z" fill="#233269"/>
<path transform="matrix(1,0,0,-1,139.1191,98.7422)" d="M0 0C-1.24-3.13-4.569-4.809-7.759-4.081L-13.711-19.072-11.664-19.133C-13.267-19.957-15.114-21.586-16.378-22.985-16.336-21.101-16.563-18.649-17.169-16.946L-15.633-18.308-9.678-3.311C-12.501-1.662-13.776 1.844-12.53 4.974-11.158 8.439-7.235 10.13-3.776 8.755-.316 7.382 1.377 3.46 0 0M-21.269 32.441C-20.027 35.577-16.698 37.247-13.511 36.52L-7.559 51.511-9.607 51.574C-8.001 52.403-6.151 54.025-4.889 55.427-4.931 53.543-4.702 51.087-4.101 49.392L-5.634 50.751-11.589 35.758C-8.766 34.104-7.495 30.599-8.737 27.463-10.112 24.004-14.029 22.312-17.489 23.686-20.953 25.061-22.644 28.981-21.269 32.441M-20.006 14.544-25.96-.448C-23.141-2.103-21.866-5.605-23.108-8.739-24.482-12.198-28.404-13.894-31.865-12.519-35.326-11.146-37.017-7.224-35.645-3.765-34.398-.629-31.069 1.046-27.881 .318L-21.929 15.309-23.978 15.367C-22.372 16.198-20.522 17.82-19.262 19.223-19.306 17.339-19.077 14.891-18.476 13.187ZM-34.039-20.805-39.989-35.79C-37.172-37.443-35.895-40.947-37.137-44.082-38.514-47.543-42.434-49.234-45.897-47.86-49.357-46.487-51.048-42.57-49.673-39.106-48.427-35.977-45.098-34.299-41.915-35.029L-35.963-20.04-38.007-19.975C-36.403-19.15-34.555-17.521-33.296-16.123-33.337-18.007-33.106-20.46-32.505-22.153ZM-50.839-9.031C-54.105-8.948-56.916-6.494-57.342-3.15-57.817 .541-55.201 3.922-51.508 4.39-47.813 4.866-44.436 2.251-43.967-1.444-43.541-4.788-45.641-7.861-48.786-8.767L-46.745-24.768-44.921-23.833C-45.926-25.33-46.758-27.652-47.185-29.486-48.061-27.816-49.449-25.783-50.798-24.582L-48.793-25.032ZM-63.136 35.124C-63.604 38.819-60.992 42.191-57.296 42.666-53.602 43.138-50.229 40.521-49.761 36.835-49.329 33.486-51.429 30.41-54.575 29.508L-52.534 13.508-50.71 14.438C-51.715 12.944-52.55 10.627-52.974 8.794-53.85 10.458-55.238 12.491-56.586 13.693L-54.587 13.244-56.627 29.244C-59.898 29.331-62.704 31.779-63.136 35.124M-65.271 59.883-71.221 44.891C-68.406 43.237-67.129 39.732-68.374 36.601-69.749 33.141-73.664 31.446-77.125 32.819-80.588 34.194-82.282 38.115-80.91 41.575-79.663 44.71-76.334 46.384-73.146 45.657L-67.193 60.649-69.24 60.71C-67.637 61.538-65.785 63.163-64.523 64.562-64.567 62.677-64.336 60.229-63.737 58.525ZM-79.642 23.678-85.596 8.689C-85.567 8.672-85.542 8.648-85.514 8.631-85.289 8.493-85.085 8.336-84.881 8.177-84.753 8.077-84.623 7.981-84.503 7.872-84.321 7.707-84.153 7.528-83.99 7.345-83.877 7.217-83.766 7.088-83.662 6.95-83.522 6.765-83.393 6.576-83.274 6.377-83.177 6.218-83.087 6.055-83.004 5.889-82.907 5.696-82.816 5.501-82.737 5.297-82.665 5.107-82.606 4.913-82.552 4.718-82.496 4.523-82.439 4.329-82.401 4.131-82.357 3.907-82.34 3.685-82.32 3.458-82.304 3.273-82.28 3.09-82.278 2.902-82.278 2.641-82.309 2.379-82.34 2.118-82.356 1.959-82.36 1.802-82.389 1.647-82.467 1.227-82.583 .809-82.744 .395-84.118-3.065-88.04-4.76-91.5-3.385-94.96-2.011-96.654 1.913-95.281 5.373-95.116 5.785-94.913 6.168-94.681 6.528-94.593 6.665-94.484 6.785-94.388 6.914-94.232 7.12-94.079 7.327-93.904 7.512-93.769 7.656-93.619 7.776-93.473 7.907-93.31 8.05-93.152 8.194-92.978 8.321-92.805 8.447-92.622 8.554-92.438 8.663-92.273 8.759-92.11 8.855-91.938 8.938-91.731 9.04-91.52 9.123-91.303 9.199-91.142 9.26-90.979 9.313-90.814 9.358-90.578 9.425-90.342 9.478-90.099 9.517-89.945 9.543-89.791 9.559-89.636 9.574-89.376 9.598-89.12 9.613-88.857 9.609-88.713 9.604-88.568 9.587-88.423 9.574-88.149 9.549-87.879 9.521-87.608 9.463-87.578 9.458-87.547 9.458-87.517 9.452L-81.566 24.444-83.613 24.509C-82.009 25.333-80.157 26.958-78.898 28.36-78.939 26.477-78.712 24.023-78.112 22.32ZM-98.597 21.967-104.551 6.979-102.501 6.918C-104.106 6.085-105.957 4.465-107.216 3.062-107.17 4.946-107.406 7.399-108.006 9.097L-106.472 7.744-100.519 22.732C-103.337 24.387-104.612 27.891-103.369 31.023-101.994 34.482-98.078 36.177-94.614 34.804-91.154 33.429-89.463 29.512-90.837 26.048-92.08 22.917-95.408 21.239-98.597 21.967M7 33.092 1.05 18.104 3.096 18.042C1.49 17.21-.362 15.584-1.619 14.187-1.578 16.071-1.809 18.523-2.406 20.222L-.874 18.869 5.079 33.857C2.261 35.51 .984 39.017 2.227 42.151 2.675 43.278 3.41 44.191 4.292 44.899-7.877 64.329-29.463 77.258-54.077 77.258-54.809 77.258-55.532 77.226-56.26 77.203-55.062 76.157-54.208 74.704-53.992 73-53.563 69.659-55.665 66.582-58.807 65.676L-56.768 49.676-54.943 50.61C-55.948 49.112-56.778 46.792-57.208 44.957-58.079 46.627-59.467 48.661-60.82 49.861L-58.82 49.413-60.861 65.414C-64.127 65.495-66.938 67.947-67.364 71.293-67.598 73.107-67.077 74.843-66.057 76.197-70.99 75.331-75.742 73.949-80.252 72.091-80.121 72.049-79.986 72.031-79.857 71.979-76.396 70.605-74.705 66.685-76.08 63.226-77.322 60.09-80.651 58.415-83.839 59.143L-89.792 44.15-87.743 44.089C-89.349 43.263-91.199 41.637-92.458 40.238-92.417 42.122-92.646 44.571-93.248 46.273L-91.713 44.916-85.76 59.908C-88.497 61.511-89.755 64.854-88.698 67.909-109.148 55.979-122.903 33.821-122.903 8.434-122.903-1.375-120.837-10.695-117.14-19.138L-114.548-12.61C-117.37-10.954-118.641-7.453-117.4-4.318-116.025-.858-112.108 .834-108.647-.538-105.184-1.913-103.493-5.839-104.866-9.299-106.11-12.429-109.441-14.103-112.626-13.375L-115.946-21.735C-114.177-25.356-112.093-28.796-109.741-32.024-109.698-31.336-109.577-30.646-109.31-29.97-109.146-29.556-108.941-29.172-108.709-28.812-108.63-28.687-108.533-28.585-108.445-28.467-108.28-28.243-108.114-28.021-107.926-27.822-107.804-27.694-107.667-27.583-107.535-27.465-107.36-27.306-107.185-27.151-106.995-27.014-106.837-26.898-106.669-26.8-106.501-26.702-106.32-26.593-106.138-26.487-105.946-26.395-105.758-26.306-105.566-26.232-105.371-26.157-105.186-26.09-104.999-26.029-104.807-25.977-104.597-25.92-104.388-25.872-104.173-25.835-103.984-25.802-103.792-25.783-103.6-25.768-103.379-25.75-103.162-25.735-102.938-25.739-102.738-25.741-102.539-25.763-102.339-25.785-102.122-25.807-101.908-25.826-101.692-25.872-101.644-25.881-101.597-25.879-101.55-25.889L-95.598-10.902-97.642-10.841C-96.038-10.009-94.191-8.387-92.933-6.985-92.972-8.869-92.743-11.316-92.142-13.022L-93.676-11.663-99.625-26.655C-99.586-26.678-99.555-26.709-99.516-26.733-99.321-26.853-99.146-26.99-98.967-27.125-98.811-27.245-98.655-27.362-98.511-27.493-98.346-27.644-98.198-27.802-98.051-27.965-97.918-28.114-97.792-28.262-97.673-28.419-97.545-28.589-97.429-28.761-97.318-28.942-97.21-29.119-97.112-29.297-97.021-29.484-96.932-29.663-96.849-29.842-96.776-30.027-96.695-30.233-96.63-30.447-96.571-30.663-96.522-30.842-96.47-31.016-96.435-31.197-96.387-31.439-96.365-31.687-96.346-31.936-96.333-32.102-96.311-32.262-96.309-32.428-96.307-32.715-96.34-33.003-96.375-33.291-96.392-33.426-96.392-33.557-96.417-33.689-96.496-34.114-96.61-34.535-96.774-34.951-97.922-37.833-100.843-39.463-103.792-39.134-91.262-52.224-73.628-60.392-54.077-60.392-45.787-60.392-37.84-58.924-30.479-56.237-30.581-54.847-30.801-53.41-31.198-52.296L-29.662-53.649-23.713-38.661C-26.533-37.005-27.808-33.502-26.562-30.367-25.187-26.911-21.267-25.217-17.805-26.589-14.345-27.964-12.654-31.881-14.029-35.346-15.271-38.476-18.603-40.154-21.788-39.422L-27.742-54.414-26.134-54.461C-2.051-43.747 14.757-19.625 14.757 8.434 14.757 17.151 13.12 25.481 10.161 33.155 9.146 32.895 8.067 32.848 7 33.092" fill="#233269"/>
</g>
</g>
</svg>
