<?xml version="1.0" encoding="UTF-8" standalone="no"?>
<svg
   version="1.1"
   width="137.66pt"
   height="137.64999pt"
   viewBox="0 0 137.66 137.64999"
   id="svg43"
   sodipodi:docname="nisl-logo-min-small.svg"
   inkscape:version="1.3 (0e150ed6c4, 2023-07-21)"
   xmlns:inkscape="http://www.inkscape.org/namespaces/inkscape"
   xmlns:sodipodi="http://sodipodi.sourceforge.net/DTD/sodipodi-0.dtd"
   xmlns="http://www.w3.org/2000/svg"
   xmlns:svg="http://www.w3.org/2000/svg">
  <sodipodi:namedview
     id="namedview43"
     pagecolor="#ffffff"
     bordercolor="#000000"
     borderopacity="0.25"
     inkscape:showpageshadow="2"
     inkscape:pageopacity="0.0"
     inkscape:pagecheckerboard="0"
     inkscape:deskcolor="#d1d1d1"
     inkscape:document-units="pt"
     inkscape:zoom="1.513191"
     inkscape:cx="243.52511"
     inkscape:cy="91.528435"
     inkscape:window-width="1362"
     inkscape:window-height="747"
     inkscape:window-x="0"
     inkscape:window-y="17"
     inkscape:window-maximized="1"
     inkscape:current-layer="layer_1" />
  <defs
     id="defs1">
    <clipPath
       id="clip_0">
      <path
         transform="matrix(1,0,0,-1,0,180)"
         d="M 0,180 H 398 V 0 H 0 Z"
         id="path1" />
    </clipPath>
  </defs>
  <g
     id="layer_1"
     data-name=""
     transform="translate(-16.216102,-21.484205)">
    <path
       d="m 0,0 c -1.24,-3.13 -4.569,-4.809 -7.759,-4.081 l -5.952,-14.991 2.047,-0.061 c -1.603,-0.824 -3.45,-2.453 -4.714,-3.852 0.042,1.884 -0.185,4.336 -0.791,6.039 l 1.536,-1.362 5.955,14.997 c -2.823,1.649 -4.098,5.155 -2.852,8.285 1.372,3.465 5.295,5.156 8.754,3.781 C -0.316,7.382 1.377,3.46 0,0 m -21.269,32.441 c 1.242,3.136 4.571,4.806 7.758,4.079 l 5.952,14.991 -2.048,0.063 c 1.606,0.829 3.456,2.451 4.718,3.853 -0.042,-1.884 0.187,-4.34 0.788,-6.035 l -1.533,1.359 -5.955,-14.993 c 2.823,-1.654 4.094,-5.159 2.852,-8.295 -1.375,-3.459 -5.292,-5.151 -8.752,-3.777 -3.464,1.375 -5.155,5.295 -3.78,8.755 m 1.263,-17.897 -5.954,-14.992 c 2.819,-1.655 4.094,-5.157 2.852,-8.291 -1.374,-3.459 -5.296,-5.155 -8.757,-3.78 -3.461,1.373 -5.152,5.295 -3.78,8.754 1.247,3.136 4.576,4.811 7.764,4.083 l 5.952,14.991 -2.049,0.058 c 1.606,0.831 3.456,2.453 4.716,3.856 -0.044,-1.884 0.185,-4.332 0.786,-6.036 z m -14.033,-35.349 -5.95,-14.985 c 2.817,-1.653 4.094,-5.157 2.852,-8.292 -1.377,-3.461 -5.297,-5.152 -8.76,-3.778 -3.46,1.373 -5.151,5.29 -3.776,8.754 1.246,3.129 4.575,4.807 7.758,4.077 l 5.952,14.989 -2.044,0.065 c 1.604,0.825 3.452,2.454 4.711,3.852 -0.041,-1.884 0.19,-4.337 0.791,-6.03 z m -16.8,11.774 c -3.266,0.083 -6.077,2.537 -6.503,5.881 -0.475,3.691 2.141,7.072 5.834,7.54 3.695,0.476 7.072,-2.139 7.541,-5.834 0.426,-3.344 -1.674,-6.417 -4.819,-7.323 l 2.041,-16.001 1.824,0.935 c -1.005,-1.497 -1.837,-3.819 -2.264,-5.653 -0.876,1.67 -2.264,3.703 -3.613,4.904 l 2.005,-0.45 z m -12.297,44.155 c -0.468,3.695 2.144,7.067 5.84,7.542 3.694,0.472 7.067,-2.145 7.535,-5.831 0.432,-3.349 -1.668,-6.425 -4.814,-7.327 l 2.041,-16 1.824,0.93 c -1.005,-1.494 -1.84,-3.811 -2.264,-5.644 -0.876,1.664 -2.264,3.697 -3.612,4.899 l 1.999,-0.449 -2.04,16 c -3.271,0.087 -6.077,2.535 -6.509,5.88 m -2.135,24.759 -5.95,-14.992 c 2.815,-1.654 4.092,-5.159 2.847,-8.29 -1.375,-3.46 -5.29,-5.155 -8.751,-3.782 -3.463,1.375 -5.157,5.296 -3.785,8.756 1.247,3.135 4.576,4.809 7.764,4.082 l 5.953,14.992 -2.047,0.061 c 1.603,0.828 3.455,2.453 4.717,3.852 -0.044,-1.885 0.187,-4.333 0.786,-6.037 z M -79.642,23.678 -85.596,8.689 c 0.029,-0.017 0.054,-0.041 0.082,-0.058 0.225,-0.138 0.429,-0.295 0.633,-0.454 0.128,-0.1 0.258,-0.196 0.378,-0.305 0.182,-0.165 0.35,-0.344 0.513,-0.527 0.113,-0.128 0.224,-0.257 0.328,-0.395 0.14,-0.185 0.269,-0.374 0.388,-0.573 0.097,-0.159 0.187,-0.322 0.27,-0.488 0.097,-0.193 0.188,-0.388 0.267,-0.592 0.072,-0.19 0.131,-0.384 0.185,-0.579 0.056,-0.195 0.113,-0.389 0.151,-0.587 0.044,-0.224 0.061,-0.446 0.081,-0.673 0.016,-0.185 0.04,-0.368 0.042,-0.556 0,-0.261 -0.031,-0.523 -0.062,-0.784 -0.016,-0.159 -0.02,-0.316 -0.049,-0.471 -0.078,-0.42 -0.194,-0.838 -0.355,-1.252 -1.374,-3.46 -5.296,-5.155 -8.756,-3.78 -3.46,1.374 -5.154,5.298 -3.781,8.758 0.165,0.412 0.368,0.795 0.6,1.155 0.088,0.137 0.197,0.257 0.293,0.386 0.156,0.206 0.309,0.413 0.484,0.598 0.135,0.144 0.285,0.264 0.431,0.395 0.163,0.143 0.321,0.287 0.495,0.414 0.173,0.126 0.356,0.233 0.54,0.342 0.165,0.096 0.328,0.192 0.5,0.275 0.207,0.102 0.418,0.185 0.635,0.261 0.161,0.061 0.324,0.114 0.489,0.159 0.236,0.067 0.472,0.12 0.715,0.159 0.154,0.026 0.308,0.042 0.463,0.057 0.26,0.024 0.516,0.039 0.779,0.035 0.144,-0.005 0.289,-0.022 0.434,-0.035 0.274,-0.025 0.544,-0.053 0.815,-0.111 0.03,-0.005 0.061,-0.005 0.091,-0.011 l 5.951,14.992 -2.047,0.065 c 1.604,0.824 3.456,2.449 4.715,3.851 -0.041,-1.883 0.186,-4.337 0.786,-6.04 z m -18.955,-1.711 -5.954,-14.988 2.05,-0.061 c -1.605,-0.833 -3.456,-2.453 -4.715,-3.856 0.046,1.884 -0.19,4.337 -0.79,6.035 l 1.534,-1.353 5.953,14.988 c -2.818,1.655 -4.093,5.159 -2.85,8.291 1.375,3.459 5.291,5.154 8.755,3.781 3.46,-1.375 5.151,-5.292 3.777,-8.756 -1.243,-3.131 -4.571,-4.809 -7.76,-4.081 M 7,33.092 1.05,18.104 3.096,18.042 C 1.49,17.21 -0.362,15.584 -1.619,14.187 c 0.041,1.884 -0.19,4.336 -0.787,6.035 l 1.532,-1.353 5.953,14.988 c -2.818,1.653 -4.095,5.16 -2.852,8.294 0.448,1.127 1.183,2.04 2.065,2.748 -12.169,19.43 -33.755,32.359 -58.369,32.359 -0.732,0 -1.455,-0.032 -2.183,-0.055 1.198,-1.046 2.052,-2.499 2.268,-4.203 0.429,-3.341 -1.673,-6.418 -4.815,-7.324 l 2.039,-16 1.825,0.934 c -1.005,-1.498 -1.835,-3.818 -2.265,-5.653 -0.871,1.67 -2.259,3.704 -3.612,4.904 l 2,-0.448 -2.041,16.001 c -3.266,0.081 -6.077,2.533 -6.503,5.879 -0.234,1.814 0.287,3.55 1.307,4.904 -4.933,-0.866 -9.685,-2.248 -14.195,-4.106 0.131,-0.042 0.266,-0.06 0.395,-0.112 3.461,-1.374 5.152,-5.294 3.777,-8.753 -1.242,-3.136 -4.571,-4.811 -7.759,-4.083 l -5.953,-14.993 2.049,-0.061 c -1.606,-0.826 -3.456,-2.452 -4.715,-3.851 0.041,1.884 -0.188,4.333 -0.79,6.035 l 1.535,-1.357 5.953,14.992 c -2.737,1.603 -3.995,4.946 -2.938,8.001 -20.45,-11.93 -34.205,-34.088 -34.205,-59.475 0,-9.809 2.066,-19.129 5.763,-27.572 l 2.592,6.528 c -2.822,1.656 -4.093,5.157 -2.852,8.292 1.375,3.46 5.292,5.152 8.753,3.78 3.463,-1.375 5.154,-5.301 3.781,-8.761 -1.244,-3.13 -4.575,-4.804 -7.76,-4.076 l -3.32,-8.36 c 1.769,-3.621 3.853,-7.061 6.205,-10.289 0.043,0.688 0.164,1.378 0.431,2.054 0.164,0.414 0.369,0.798 0.601,1.158 0.079,0.125 0.176,0.227 0.264,0.345 0.165,0.224 0.331,0.446 0.519,0.645 0.122,0.128 0.259,0.239 0.391,0.357 0.175,0.159 0.35,0.314 0.54,0.451 0.158,0.116 0.326,0.214 0.494,0.312 0.181,0.109 0.363,0.215 0.555,0.307 0.188,0.089 0.38,0.163 0.575,0.238 0.185,0.067 0.372,0.128 0.564,0.18 0.21,0.057 0.419,0.105 0.634,0.142 0.189,0.033 0.381,0.052 0.573,0.067 0.221,0.018 0.438,0.033 0.662,0.029 0.2,-0.002 0.399,-0.024 0.599,-0.046 0.217,-0.022 0.431,-0.041 0.647,-0.087 0.048,-0.009 0.095,-0.007 0.142,-0.017 l 5.952,14.987 -2.044,0.061 c 1.604,0.832 3.451,2.454 4.709,3.856 -0.039,-1.884 0.19,-4.331 0.791,-6.037 l -1.534,1.359 -5.949,-14.992 c 0.039,-0.023 0.07,-0.054 0.109,-0.078 0.195,-0.12 0.37,-0.257 0.549,-0.392 0.156,-0.12 0.312,-0.237 0.456,-0.368 0.165,-0.151 0.313,-0.309 0.46,-0.472 0.133,-0.149 0.259,-0.297 0.378,-0.454 0.128,-0.17 0.244,-0.342 0.355,-0.523 0.108,-0.177 0.206,-0.355 0.297,-0.542 0.089,-0.179 0.172,-0.358 0.245,-0.543 0.081,-0.206 0.146,-0.42 0.205,-0.636 0.049,-0.179 0.101,-0.353 0.136,-0.534 0.048,-0.242 0.07,-0.49 0.089,-0.739 0.013,-0.166 0.035,-0.326 0.037,-0.492 0.002,-0.287 -0.031,-0.575 -0.066,-0.863 -0.017,-0.135 -0.017,-0.266 -0.042,-0.398 -0.079,-0.425 -0.193,-0.846 -0.357,-1.262 -1.148,-2.882 -4.069,-4.512 -7.018,-4.183 12.53,-13.09 30.164,-21.258 49.715,-21.258 8.29,0 16.237,1.468 23.598,4.155 -0.102,1.39 -0.322,2.827 -0.719,3.941 l 1.536,-1.353 5.949,14.988 c -2.82,1.656 -4.095,5.159 -2.849,8.294 1.375,3.456 5.295,5.15 8.757,3.778 3.46,-1.375 5.151,-5.292 3.776,-8.757 -1.242,-3.13 -4.574,-4.808 -7.759,-4.076 l -5.954,-14.992 1.608,-0.047 c 24.083,10.714 40.891,34.836 40.891,62.895 0,8.717 -1.637,17.047 -4.596,24.721 C 9.146,32.895 8.067,32.848 7,33.092"
       fill="#233269"
       id="path43"
       transform="matrix(0.99999998,0,0,-0.99999998,139.1191,98.742203)" />
  </g>
</svg>
