<?xml version="1.0" encoding="UTF-8"?>
<svg id="Layer_1" data-name="Layer 1" xmlns="http://www.w3.org/2000/svg" version="1.1" viewBox="0 0 320 132">
  <defs>
    <style>
      .cls-1 {
        fill: #9a77ff;
      }

      .cls-1, .cls-2, .cls-3, .cls-4 {
        stroke-width: 0px;
      }

      .cls-2, .cls-4 {
        fill: #000;
      }

      .cls-3 {
        fill: #fff;
      }

      .cls-4 {
        fill-rule: evenodd;
      }
    </style>
  </defs>
  <g id="Layer_2" data-name="Layer 2">
    <rect class="cls-1" width="320" height="132"/>
  </g>
  <g id="Layer_1-2" data-name="Layer 1">
    <path class="cls-4" d="M208.8,48.8c-.2.9,1,1.2,1.5,1.7,4.6,4.5,11.1,6.8,19.5,6.8s6.9-.7,9.7-2c2.8-1.4,5-3.3,6.6-5.6,1.6-2.3,2.4-4.8,2.4-7.4h-2.4c0,2.1-.7,4.1-2,6.1-1.2,1.9-3,3.5-5.2,4.8-2.2,1.2-4.5,1.7-7,1.7-3.7,0-6.6-1.7-8.7-5.1-2-3.5-3-9.6-3-18.2s1-15.1,3-18.6c2.1-3.5,5-5.2,8.7-5.2s2.5.2,3.5.5l1.4.5v14.6s.3.2,1.2.3c.9.1,1.8.2,2.7.2,2.2,0,4-.6,5.3-1.9,1.4-1.4,2.1-3.1,2.1-5.3,0-3.5-1.6-5.5-4.7-7.6-3-2.1-7.5-3.1-13.5-3.1s-13.8,1.1-19.5,6.9c-3.3,3.3-5.9,10.4-5.9,10.4,0,0,3.8,3.3,5.4,6,1.9,3.2,2.6,5.7,2.6,9.2s-1,6.7-3,9.6c-.2.3-.5.4-.6.8h0Z"/>
    <path class="cls-2" d="M170.3,69.5v51.6l7.8,2.9v1.5h-18.5v-1.5l7.8-2.9v-60.9l-7.8-1.4v-1.5h14.1c3.4,0,6,.7,8,2.1,2,1.4,3.7,3.4,5.2,6.1l21.2,40.6,16.3-40.6c1.1-2.9,2.6-4.9,4.5-6.2,1.9-1.4,4.8-2,8.7-2h10.5v1.5l-6.1,1.4v62.3l5.8,1.5v1.5h-27.8v-1.5l5.9-1.5v-53.1l-22.9,57h-2.9l-29.7-57h0Z"/>
    <path class="cls-2" d="M182,57.3c-4,0-7.6-.9-10.8-2.6-1.6-.8-2.8-1.7-3.8-2.7-1,1.4-2.2,2.5-3.4,3.3-.6.4-1.2.8-2,1.1h-2.4v-16.5h3.9c.8,2.7,2.1,5.2,3.7,7.6,3.4,5,7.7,7.5,12.9,7.5s4.8-.6,6.1-1.9c1.4-1.4,2.1-3.3,2.1-5.8s-1-3.9-2.9-5.3c-1.9-1.5-4.9-3.3-9-5.4-3.5-1.7-6.4-3.3-8.6-4.7-2.1-1.4-4-3.2-5.6-5.2-1.5-2.1-2.3-4.6-2.3-7.5s1.7-7,5-9.4c3.4-2.5,8.5-3.7,15.5-3.7s6.6.9,9.6,2.7c1.4.8,2.7,1.7,3.7,2.6.8-1.2,2-2.3,3.4-3.3,1.1-.6,1.8-1,1.9-1.1h2.4v16.5h-3.9c-1-2.8-2.2-5.3-3.6-7.5-3.3-5.1-7.1-7.6-11.6-7.6s-3.3.6-4.5,1.9c-1.2,1.3-1.9,2.9-1.9,4.9s1,4.5,3.1,6.2c2.1,1.6,5.2,3.5,9.5,5.6,3.4,1.7,6.2,3.3,8.2,4.7,2.1,1.3,3.8,2.9,5.3,4.9,1.5,1.9,2.2,4.2,2.2,6.8,0,9.4-7.5,14.1-22.4,14.1h0Z"/>
    <path class="cls-2" d="M276.5,124.1l-6-1.5v-6h0V8.8l6-1.5v-1.5h-28v1.5l6,1.5v113.8l-6,1.5v1.5h28v-1.5h0,0Z"/>
    <path class="cls-3" d="M103.8,85.5c66.1,69.2,71.8,19.3,18.4-15.8-.9-.6-1.7.6-1,1.3,45.6,45,.6,31.8-17.4,14.5h0Z"/>
    <path class="cls-3" d="M103.8,45.9c66.1-69.2,71.8-19.3,18.4,15.8-.9.6-1.7-.6-1-1.3,45.6-45,.6-31.8-17.4-14.5h0Z"/>
    <path class="cls-3" d="M103.8,85.5c-66.1,69.2-71.8,19.3-18.4-15.8.9-.6,1.7.6,1,1.3-45.6,45-.6,31.8,17.4,14.5h0Z"/>
    <path class="cls-3" d="M103.8,45.9C37.8-23.3,32,26.7,85.4,61.7c.9.6,1.7-.6,1-1.3-45.6-45-.6-31.8,17.4-14.5h0Z"/>
    <path class="cls-3" d="M98,59.9c2.6-2.6,4.2-4.7,5.1-6.4.3-.5,1-.5,1.3,0,.9,1.7,2.5,3.8,5.1,6.4s32.7,4.6,48.4,5.5c2.4.1,4.5.3,6.1.3h0c-1.6,0-3.6.2-5.9.3h-.2c-15.7.9-45.4,2.5-48.4,5.5-2.6,2.6-4.2,4.7-5.1,6.4-.3.5-1,.5-1.3,0-.9-1.7-2.5-3.8-5.1-6.4-3-3-32.7-4.6-48.4-5.5h0c-2.4-.1-4.5-.3-6.1-.3h0c1.6,0,3.7-.2,6.1-.3h0c15.7-.9,45.4-2.5,48.4-5.5h0Z"/>
    <path class="cls-3" d="M97.9,71.5c-2.6-2.6-4.7-4.2-6.4-5.1-.5-.3-.5-1,0-1.3,1.7-.9,3.8-2.5,6.4-5.1s4.6-32.7,5.5-48.4c.1-2.4.3-4.5.3-6.1h0c0,1.6.2,3.6.3,5.9v.2c.9,15.7,2.5,45.4,5.5,48.4,2.6,2.6,4.7,4.2,6.4,5.1.5.3.5,1,0,1.3-1.7.9-3.8,2.5-6.4,5.1-3,3-4.6,32.7-5.5,48.4h0c-.1,2.4-.3,4.5-.3,6.1h0c0-1.6-.2-3.7-.3-6.1h0c-.9-15.7-2.5-45.4-5.5-48.4h0Z"/>
  </g>
</svg>